<svg width="338.899853515625px" height="122px" xmlns="http://www.w3.org/2000/svg" viewBox="80.5500732421875 14 338.899853515625 122" style="background: none;" preserveAspectRatio="xMidYMid"><defs><linearGradient id="editing-sticker-gradient" x1="0.5" y1="0.2" x2="0.5" y2="0.8"><stop offset="0" stop-color="#545454"></stop><stop offset="1" stop-color="#141414"></stop></linearGradient><filter id="editing-sticker" x="-100%" y="-100%" width="300%" height="300%"><feMorphology operator="erode" radius="1" in="SourceAlpha" result="alpha-erode"></feMorphology><feConvolveMatrix order="3,3" divisor="1" kernelMatrix="0 1 0 1 1 1 0 1 0" in="alpha-erode" result="alpha-round"></feConvolveMatrix><feMorphology operator="dilate" radius="3.5" in="alpha-round" result="dilate-shadow"></feMorphology><feGaussianBlur in="dilate-shadow" stdDeviation="1.5" result="shadow"></feGaussianBlur><feFlood flood-color="#fff" result="flood-sticker"></feFlood><feComposite operator="in" in="flood-sticker" in2="alpha-round" result="comp-sticker"></feComposite><feMorphology operator="dilate" radius="3" in="comp-sticker" result="morph-sticker"></feMorphology><feConvolveMatrix order="3,3" divisor="1" kernelMatrix="0 1 0 1 1 1 0 1 0" in="morph-sticker" result="sticker"></feConvolveMatrix><feMerge><feMergeNode in="shadow"></feMergeNode><feMergeNode in="sticker"></feMergeNode><feMergeNode in="SourceGraphic"></feMergeNode></feMerge></filter></defs><g filter="url(#editing-sticker)"><g transform="translate(132.6534674167633, 98.71000099182129)"><path d="M28.42-9.86L28.42-9.86L28.42-9.86Q29.63-8.32 29.63-5.82L29.63-5.82L29.63-5.82Q29.63-2.37 27.07-0.54L27.07-0.54L27.07-0.54Q24.51 1.28 20.48 1.28L20.48 1.28L20.48 1.28Q18.18 1.28 14.66 0.77L14.66 0.77L14.66 0.77Q7.74-0.32 5.63-0.32L5.63-0.32L5.63-0.32Q3.52-0.32 2.69-0.22L2.69-0.22L2.69-0.22Q1.86-0.13 0.51 0L0.51 0L8.38-42.24L35.97-42.24L35.97-42.24Q35.97-38.34 34.08-36.29L34.08-36.29L34.08-36.29Q32.19-34.24 28.48-34.24L28.48-34.24L28.48-34.24Q24.77-34.24 20.99-35.97L20.99-35.97L19.01-24.77L30.40-24.77L30.40-24.77Q30.40-21.38 28.74-19.49L28.74-19.49L28.74-19.49Q27.07-17.60 24.29-17.60L24.29-17.60L24.29-17.60Q21.50-17.60 19.78-18.24L19.78-18.24L19.78-18.24Q18.05-18.88 17.86-19.07L17.86-19.07L15.55-6.98L15.55-6.98Q17.09-6.78 19.97-6.78L19.97-6.78L19.97-6.78Q24.90-6.78 28.42-9.86ZM56.06-2.69L56.06-2.69L56.06-2.69Q52.99 1.28 45.38 1.28L45.38 1.28L45.38 1.28Q41.41 1.28 38.53-1.12L38.53-1.12L38.53-1.12Q35.65-3.52 35.65-6.98L35.65-6.98L35.65-6.98Q35.65-8.90 35.84-9.86L35.84-9.86L40.13-32.64L53.12-33.92L48.45-9.22L48.45-9.22Q48.19-7.81 48.19-6.98L48.19-6.98L48.19-6.98Q48.19-3.26 50.43-3.26L50.43-3.26L50.43-3.26Q52.93-3.26 54.72-6.66L54.72-6.66L54.72-6.66Q55.30-7.74 55.55-9.15L55.55-9.15L60.10-32.64L72.70-33.92L67.97-8.96L67.97-8.96Q67.78-8 67.78-6.98L67.78-6.98L67.78-6.98Q67.78-5.95 68.35-4.83L68.35-4.83L68.35-4.83Q68.93-3.71 70.78-3.46L70.78-3.46L70.78-3.46Q70.40-1.92 69.06-0.90L69.06-0.90L69.06-0.90Q66.24 1.28 63.20 1.28L63.20 1.28L63.20 1.28Q60.16 1.28 58.37 0.19L58.37 0.19L58.37 0.19Q56.58-0.90 56.06-2.69ZM107.33-26.62L107.33-26.62L107.33-26.62Q107.33-23.94 105.09-22.27L105.09-22.27L105.09-22.27Q102.85-20.61 99.20-20.61L99.20-20.61L99.20-20.61Q97.66-20.61 96.77-21.06L96.77-21.06L96.77-21.06Q97.47-22.72 97.70-24.80L97.70-24.80L97.70-24.80Q97.92-26.88 97.92-27.46L97.92-27.46L97.92-27.46Q97.92-30.14 96.06-30.14L96.06-30.14L96.06-30.14Q94.78-30.14 93.34-28.54L93.34-28.54L93.34-28.54Q91.90-26.94 90.69-24.45L90.69-24.45L90.69-24.45Q88-18.69 88-12.86L88-12.86L88-12.86Q88-9.66 89.22-8.22L89.22-8.22L89.22-8.22Q90.43-6.78 93.12-6.78L93.12-6.78L93.12-6.78Q96.83-6.78 99.78-9.86L99.78-9.86L99.78-9.86Q100.61-10.82 101.06-11.90L101.06-11.90L101.06-11.90Q103.49-10.62 103.49-7.10L103.49-7.10L103.49-7.10Q103.49-3.52 99.52-1.15L99.52-1.15L99.52-1.15Q95.42 1.28 88.90 1.28L88.90 1.28L88.90 1.28Q75.90 1.28 75.90-12.48L75.90-12.48L75.90-12.48Q75.90-22.53 81.60-28.29L81.60-28.29L81.60-28.29Q87.10-33.92 97.22-33.92L97.22-33.92L97.22-33.92Q107.33-33.92 107.33-26.62ZM141.25-7.10L141.25-7.10L141.25-7.10Q141.25-4.29 144.13-3.46L144.13-3.46L144.13-3.46Q143.42-1.09 140.67 0.19L140.67 0.19L140.67 0.19Q138.37 1.28 135.84 1.28L135.84 1.28L135.84 1.28Q133.31 1.28 132 0.61L132 0.61L132 0.61Q130.69-0.06 129.98-1.15L129.98-1.15L129.98-1.15Q128.83-2.82 128.83-5.95L128.83-5.95L128.83-5.95Q128.83-7.81 129.86-12.93L129.86-12.93L130.75-17.79L130.75-17.79Q131.84-23.36 131.84-25.41L131.84-25.41L131.84-25.41Q131.84-28.99 129.86-28.99L129.86-28.99L129.86-28.99Q127.36-28.99 125.76-25.34L125.76-25.34L125.76-25.34Q125.12-23.94 124.67-21.82L124.67-21.82L120.32 0L107.46 1.28L116.48-44.80L129.34-46.08L128.83-43.52L128.83-43.52Q127.04-33.66 125.50-30.34L125.50-30.34L125.50-30.34Q129.09-33.92 135.68-33.92L135.68-33.92L135.68-33.92Q142.66-33.92 143.94-29.31L143.94-29.31L143.94-29.31Q144.38-27.84 144.38-26.56L144.38-26.56L144.38-26.56Q144.38-25.28 144.29-24.29L144.29-24.29L144.29-24.29Q144.19-23.30 143.87-21.50L143.87-21.50L143.04-16.90L141.57-9.66L141.57-9.66Q141.25-8.19 141.25-7.10ZM169.34-17.98L169.34-17.98L169.34-17.98Q171.65-22.08 171.65-26.24L171.65-26.24L171.65-26.24Q171.65-28.99 169.66-28.99L169.66-28.99L169.66-28.99Q168.13-28.99 166.53-26.37L166.53-26.37L166.53-26.37Q164.86-23.74 164.35-20.35L164.35-20.35L161.02 0L147.78 1.28L154.30-32.64L164.86-33.92L163.71-27.46L163.71-27.46Q166.85-33.92 173.89-33.92L173.89-33.92L173.89-33.92Q177.60-33.92 179.62-32L179.62-32L179.62-32Q181.63-30.08 181.63-26.14L181.63-26.14L181.63-26.14Q181.63-22.21 179.04-19.71L179.04-19.71L179.04-19.71Q176.45-17.22 172.03-17.22L172.03-17.22L172.03-17.22Q170.11-17.22 169.34-17.98ZM208.58-10.82L208.58-10.82L208.58-10.82Q210.18-9.73 210.18-7.33L210.18-7.33L210.18-7.33Q210.18-4.93 208.96-3.39L208.96-3.39L208.96-3.39Q207.74-1.86 205.76-0.83L205.76-0.83L205.76-0.83Q201.66 1.28 197.25 1.28L197.25 1.28L197.25 1.28Q192.83 1.28 190.24 0.32L190.24 0.32L190.24 0.32Q187.65-0.64 185.92-2.43L185.92-2.43L185.92-2.43Q182.53-5.82 182.53-12.03L182.53-12.03L182.53-12.03Q182.53-21.70 187.78-27.58L187.78-27.58L187.78-27.58Q193.41-33.92 203.20-33.92L203.20-33.92L203.20-33.92Q209.28-33.92 212.29-31.36L212.29-31.36L212.29-31.36Q214.53-29.44 214.53-26.30L214.53-26.30L214.53-26.30Q214.53-15.04 195.07-15.04L195.07-15.04L195.07-15.04Q194.82-13.38 194.82-11.97L194.82-11.97L194.82-11.97Q194.82-9.02 196.13-7.90L196.13-7.90L196.13-7.90Q197.44-6.78 199.87-6.78L199.87-6.78L199.87-6.78Q202.30-6.78 204.90-7.90L204.90-7.90L204.90-7.90Q207.49-9.02 208.58-10.82ZM195.52-17.79L195.52-17.79L195.52-17.79Q200.06-17.79 202.69-20.61L202.69-20.61L202.69-20.61Q205.31-23.30 205.31-27.58L205.31-27.58L205.31-27.58Q205.31-29.06 204.77-29.86L204.77-29.86L204.77-29.86Q204.22-30.66 203.14-30.66L203.14-30.66L203.14-30.66Q202.05-30.66 201.12-30.24L201.12-30.24L201.12-30.24Q200.19-29.82 199.23-28.42L199.23-28.42L199.23-28.42Q196.86-25.22 195.52-17.79ZM214.98-3.78L214.98-3.78L214.98-3.78Q214.98-6.21 216.80-7.52L216.80-7.52L216.80-7.52Q218.62-8.83 221.31-8.83L221.31-8.83L221.31-8.83Q224-8.83 225.70-7.52L225.70-7.52L225.70-7.52Q227.39-6.21 227.39-3.78L227.39-3.78L227.39-3.78Q227.39-1.34 225.50 0L225.50 0L225.50 0Q223.62 1.34 220.93 1.34L220.93 1.34L220.93 1.34Q218.24 1.34 216.61 0L216.61 0L216.61 0Q214.98-1.34 214.98-3.78ZM218.43-15.81L218.43-15.81L218.43-15.81Q218.43-16.26 218.56-16.90L218.56-16.90L223.55-42.62L223.55-42.62Q225.92-43.52 228.74-43.52L228.74-43.52L228.74-43.52Q231.55-43.52 233.02-41.73L233.02-41.73L233.02-41.73Q234.50-39.94 234.50-37.28L234.50-37.28L234.50-37.28Q234.50-34.62 233.47-31.65L233.47-31.65L233.47-31.65Q232.45-28.67 231.20-25.66L231.20-25.66L231.20-25.66Q229.95-22.66 228.90-19.55L228.90-19.55L228.90-19.55Q227.84-16.45 227.78-13.18L227.78-13.18L227.78-13.18Q226.30-11.52 223.74-11.52L223.74-11.52L223.74-11.52Q221.18-11.52 219.81-12.70L219.81-12.70L219.81-12.70Q218.43-13.89 218.43-15.81Z" fill="url(#editing-sticker-gradient)" stroke="#ff7841" stroke-width="2.5"></path></g></g><style>text {
  font-size: 64px;
  font-family: Arial Black;
  dominant-baseline: central;
  text-anchor: middle;
}</style></svg>