<svg width="262.74335937499995px" height="112.39999999999999px" xmlns="http://www.w3.org/2000/svg" viewBox="118.62832031250002 18.800000000000004 262.74335937499995 112.39999999999999" style="background: none;" preserveAspectRatio="xMidYMid"><defs><filter id="editing-vintage" x="-100%" y="-100%" width="300%" height="300%"><feConvolveMatrix in="SourceGraphic" result="extrude" order="6,6" divisor="1" kernelMatrix="1,0,0,0,0,0,0,1,0,0,0,0,0,0,1,0,0,0,0,0,0,1,0,0,0,0,0,0,1,0,0,0,0,0,0,1"> </feConvolveMatrix><feFlood flood-color="#900" result="flood-extrude"></feFlood><feComposite operator="in" in="flood-extrude" in2="extrude" result="extrude-color"></feComposite><feOffset dx="3" dy="3" in="extrude-color" result="extrude-offset"></feOffset><feColorMatrix in="SourceGraphic" result="stroke" type="matrix" values="0 0 0 0 0 0 0 0 0 0 0 0 0 0 0 0 1 0 0 0 "></feColorMatrix><feColorMatrix in="SourceGraphic" result="fill" type="matrix" values="0 0 0 0 0 0 0 0 0 0 0 0 0 0 0 1 0 0 1 0 "></feColorMatrix><feConvolveMatrix in="stroke" result="inner-shadow" order="5,5" divisor="1" kernelMatrix="1 0 0 0 0 0 1 0 0 0 0 0 1 0 0 0 0 0 1 0 0 0 0 0 1 "></feConvolveMatrix><feOffset dx="1" dy="1" in="inner-shadow" result="offset"></feOffset><feComposite operator="in" in="offset" in2="SourceAlpha" result="comp"></feComposite><feFlood flood-color="#000" result="flood3"></feFlood><feComposite operator="in" in="flood3" in2="comp" result="comp2"></feComposite><feColorMatrix in="comp2" result="comp3" type="matrix" values="1 0 0 0 0 0 1 0 0 0 0 0 1 0 0 0 0 0 0.5 0 "></feColorMatrix><feFlood flood-color="#f00" result="flood1"></feFlood><feComposite operator="in" in="flood1" in2="fill" result="fill2"></feComposite><feFlood flood-color="#fff" result="flood2"></feFlood><feComposite operator="in" in="flood2" in2="stroke" result="stroke2"></feComposite><feMerge result="obj"><feMergeNode in="extrude-offset"></feMergeNode><feMergeNode in="fill2"></feMergeNode><feMergeNode in="comp3"></feMergeNode></feMerge><feConvolveMatrix in="SourceAlpha" result="shadow" order="6,6" divisor="1" kernelMatrix="1,0,0,0,0,0,0,1,0,0,0,0,0,0,1,0,0,0,0,0,0,1,0,0,0,0,0,0,1,0,0,0,0,0,0,1"></feConvolveMatrix><feOffset dx="9" dy="9" in="shadow" result="shadow-offset"></feOffset><feFlood flood-color="#444444" result="flood-shadow"></feFlood><feComposite operator="in" in="flood-shadow" in2="shadow-offset" result="shadow-color"></feComposite><feMerge><feMergeNode in="shadow-color"></feMergeNode><feMergeNode in="obj"></feMergeNode></feMerge></filter></defs><g transform="translate(-6,-6)"><g filter="url(#editing-vintage)"><g transform="translate(164.52289032936096, 99.64000129699707)"><path d="M21.18-3.14L0.51 0.06L8.90-45.44L29.12-47.17L29.12-47.17Q28.67-45.76 28.35-44.29L28.35-44.29L28.35-44.29Q28.03-43.07 27.74-41.76L27.74-41.76L27.74-41.76Q27.46-40.45 27.26-39.42L27.26-39.42L27.26-39.42Q26.62-39.36 25.44-39.33L25.44-39.33L25.44-39.33Q24.26-39.30 22.91-39.26L22.91-39.26L22.91-39.26Q21.57-39.23 20.19-39.23L20.19-39.23L20.19-39.23Q18.82-39.23 17.79-39.23L17.79-39.23L15.55-27.78L15.55-27.78Q17.54-27.90 19.26-27.97L19.26-27.97L19.26-27.97Q20.67-28.03 22.14-28.03L22.14-28.03L22.14-28.03Q23.62-28.03 24.32-28.10L24.32-28.10L24.32-28.10Q24.06-26.30 23.84-24.58L23.84-24.58L23.84-24.58Q23.62-22.85 23.30-21.06L23.30-21.06L23.30-21.06Q22.66-20.99 21.22-20.96L21.22-20.96L21.22-20.96Q19.78-20.93 18.30-20.86L18.30-20.86L18.30-20.86Q16.64-20.80 14.66-20.74L14.66-20.74L12.48-8.96L21.82-10.43L21.18-3.14ZM48.45-12.48L48.45-12.48Q47.55-8.83 45.92-6.27L45.92-6.27L45.92-6.27Q44.29-3.71 42.08-2.05L42.08-2.05L42.08-2.05Q39.87-0.38 37.38 0.38L37.38 0.38L37.38 0.38Q34.88 1.15 32.38 1.15L32.38 1.15L32.38 1.15Q30.91 1.15 29.38 0.67L29.38 0.67L29.38 0.67Q27.84 0.19 26.62-0.77L26.62-0.77L26.62-0.77Q25.41-1.73 24.61-3.20L24.61-3.20L24.61-3.20Q23.81-4.67 23.81-6.66L23.81-6.66L23.81-6.66Q23.81-6.91 23.81-7.17L23.81-7.17L23.81-7.17Q23.81-7.42 23.87-7.68L23.87-7.68L23.87-7.68Q24.13-10.30 24.70-14.02L24.70-14.02L24.70-14.02Q25.28-17.73 25.92-21.76L25.92-21.76L25.92-21.76Q26.56-25.79 27.33-29.86L27.33-29.86L27.33-29.86Q28.10-33.92 28.70-37.25L28.70-37.25L28.70-37.25Q29.31-40.58 29.76-42.78L29.76-42.78L29.76-42.78Q30.21-44.99 30.34-45.50L30.34-45.50L30.34-45.50Q31.68-45.63 33.54-45.82L33.54-45.82L33.54-45.82Q35.39-46.02 36.99-46.14L36.99-46.14L36.99-46.14Q38.98-46.34 40.90-46.53L40.90-46.53L40.90-46.53Q39.23-38.78 37.95-32.51L37.95-32.51L37.95-32.51Q37.38-29.82 36.83-27.14L36.83-27.14L36.83-27.14Q36.29-24.45 35.81-22.21L35.81-22.21L35.81-22.21Q35.33-19.97 34.98-18.34L34.98-18.34L34.98-18.34Q34.62-16.70 34.40-15.68L34.40-15.68L34.40-15.68Q34.18-14.66 33.89-13.09L33.89-13.09L33.89-13.09Q33.60-11.52 33.60-10.24L33.60-10.24L33.60-10.24Q33.60-9.22 34.11-8.54L34.11-8.54L34.11-8.54Q34.62-7.87 35.39-7.87L35.39-7.87L35.39-7.87Q36.48-7.87 37.18-8.74L37.18-8.74L37.18-8.74Q37.89-9.60 38.37-10.82L38.37-10.82L38.37-10.82Q38.85-12.03 39.07-13.28L39.07-13.28L39.07-13.28Q39.30-14.53 39.49-15.23L39.49-15.23L39.49-15.23Q39.87-17.09 40.35-19.36L40.35-19.36L40.35-19.36Q40.83-21.63 41.31-24.10L41.31-24.10L41.31-24.10Q41.79-26.56 42.27-29.12L42.27-29.12L42.27-29.12Q42.75-31.68 43.20-34.11L43.20-34.11L43.20-34.11Q44.29-39.74 45.31-45.76L45.31-45.76L55.04-46.40L55.04-46.40Q55.04-46.40 54.72-44.74L54.72-44.74L54.72-44.74Q54.40-43.07 53.89-40.32L53.89-40.32L53.89-40.32Q53.38-37.57 52.77-34.05L52.77-34.05L52.77-34.05Q52.16-30.53 51.39-26.72L51.39-26.72L51.39-26.72Q50.62-22.91 49.89-19.23L49.89-19.23L49.89-19.23Q49.15-15.55 48.45-12.48L48.45-12.48ZM75.97-13.76L75.97-13.76Q74.43-10.24 72.54-7.65L72.54-7.65L72.54-7.65Q70.66-5.06 68.58-3.30L68.58-3.30L68.58-3.30Q66.50-1.54 64.38-0.70L64.38-0.70L64.38-0.70Q62.27 0.13 60.29 0.13L60.29 0.13L60.29 0.13Q58.30 0.13 56.67-0.77L56.67-0.77L56.67-0.77Q55.04-1.66 53.82-3.46L53.82-3.46L53.82-3.46Q52.61-5.25 51.87-7.87L51.87-7.87L51.87-7.87Q51.14-10.50 51.14-14.02L51.14-14.02L51.14-14.02Q51.14-20.03 52.80-25.89L52.80-25.89L52.80-25.89Q54.46-31.74 57.47-36.42L57.47-36.42L57.47-36.42Q60.48-41.09 64.61-43.94L64.61-43.94L64.61-43.94Q68.74-46.78 73.73-46.78L73.73-46.78L73.73-46.78Q75.26-46.78 76.67-46.14L76.67-46.14L76.67-46.14Q78.08-45.50 79.10-44.35L79.10-44.35L79.10-44.35Q80.13-43.20 80.74-41.54L80.74-41.54L80.74-41.54Q81.34-39.87 81.34-37.82L81.34-37.82L81.34-37.82Q81.34-37.44 81.34-37.02L81.34-37.02L81.34-37.02Q81.34-36.61 81.28-36.16L81.28-36.16L72.90-33.92L72.90-33.92Q72.13-35.52 71.10-35.52L71.10-35.52L71.10-35.52Q70.08-35.52 68.96-34.34L68.96-34.34L68.96-34.34Q67.84-33.15 66.75-31.26L66.75-31.26L66.75-31.26Q65.66-29.38 64.64-27.04L64.64-27.04L64.64-27.04Q63.62-24.70 62.85-22.34L62.85-22.34L62.85-22.34Q62.08-19.97 61.60-17.82L61.60-17.82L61.60-17.82Q61.12-15.68 61.12-14.34L61.12-14.34L61.12-14.34Q61.12-12.29 61.66-11.46L61.66-11.46L61.66-11.46Q62.21-10.62 63.10-10.62L63.10-10.62L63.10-10.62Q63.81-10.62 64.70-11.17L64.70-11.17L64.70-11.17Q65.60-11.71 66.37-12.58L66.37-12.58L66.37-12.58Q67.14-13.44 67.78-14.53L67.78-14.53L67.78-14.53Q68.42-15.62 68.67-16.70L68.67-16.70L75.97-13.76ZM85.50-1.92L75.65 0.13L75.65 0.13Q77.44-8.83 79.10-17.34L79.10-17.34L79.10-17.34Q79.74-20.99 80.45-24.93L80.45-24.93L80.45-24.93Q81.15-28.86 81.76-32.70L81.76-32.70L81.76-32.70Q82.37-36.54 82.91-40.16L82.91-40.16L82.91-40.16Q83.46-43.78 83.78-46.72L83.78-46.72L83.78-46.72Q85.25-46.66 86.50-46.56L86.50-46.56L86.50-46.56Q87.74-46.46 88.96-46.40L88.96-46.40L88.96-46.40Q90.18-46.34 91.42-46.30L91.42-46.30L91.42-46.30Q92.67-46.27 94.14-46.27L94.14-46.27L94.14-46.27Q93.06-41.73 92-37.18L92-37.18L92-37.18Q90.94-32.64 90.05-28.03L90.05-28.03L96.38-28.74L96.38-28.74Q97.28-33.28 97.98-37.54L97.98-37.54L97.98-37.54Q98.69-41.79 99.84-46.34L99.84-46.34L99.84-46.34Q101.31-46.59 103.10-46.75L103.10-46.75L103.10-46.75Q104.90-46.91 106.43-47.04L106.43-47.04L106.43-47.04Q107.97-47.17 109.02-47.26L109.02-47.26L109.02-47.26Q110.08-47.36 110.08-47.36L110.08-47.36L110.08-47.36Q109.18-44.48 108.38-41.06L108.38-41.06L108.38-41.06Q107.58-37.63 106.82-33.95L106.82-33.95L106.82-33.95Q106.05-30.27 105.34-26.50L105.34-26.50L105.34-26.50Q104.64-22.72 104.06-19.33L104.06-19.33L104.06-19.33Q102.66-11.20 101.44-2.69L101.44-2.69L91.46-1.54L91.46-1.54Q92.29-5.38 92.93-9.02L92.93-9.02L92.93-9.02Q93.57-12.10 94.24-15.42L94.24-15.42L94.24-15.42Q94.91-18.75 95.30-21.12L95.30-21.12L89.09-20.54L89.09-20.54Q88.64-18.11 88.03-14.91L88.03-14.91L88.03-14.91Q87.42-11.71 86.91-8.83L86.91-8.83L86.91-8.83Q86.21-5.38 85.50-1.92L85.50-1.92ZM113.98-2.62L103.62 0.06L103.62 0.06Q105.34-8.45 106.94-16.58L106.94-16.58L106.94-16.58Q107.52-20.03 108.22-23.78L108.22-23.78L108.22-23.78Q108.93-27.52 109.54-31.20L109.54-31.20L109.54-31.20Q110.14-34.88 110.69-38.30L110.69-38.30L110.69-38.30Q111.23-41.73 111.55-44.54L111.55-44.54L111.55-44.54Q115.20-45.70 119.42-46.24L119.42-46.24L119.42-46.24Q123.65-46.78 127.81-46.78L127.81-46.78L127.81-46.78Q130.30-46.78 131.94-46.21L131.94-46.21L131.94-46.21Q133.57-45.63 134.50-44.58L134.50-44.58L134.50-44.58Q135.42-43.52 135.81-42.11L135.81-42.11L135.81-42.11Q136.19-40.70 136.19-38.98L136.19-38.98L136.19-38.98Q136.19-36.42 135.30-33.95L135.30-33.95L135.30-33.95Q134.40-31.49 132.90-29.28L132.90-29.28L132.90-29.28Q131.39-27.07 129.44-25.25L129.44-25.25L129.44-25.25Q127.49-23.42 125.25-22.27L125.25-22.27L125.25-22.27Q126.40-19.71 127.71-16.67L127.71-16.67L127.71-16.67Q129.02-13.63 130.18-10.88L130.18-10.88L130.18-10.88Q131.46-7.68 132.80-4.48L132.80-4.48L122.88-1.02L122.88-1.02Q121.60-5.12 120.58-8.70L120.58-8.70L120.58-8.70Q120.13-10.18 119.68-11.74L119.68-11.74L119.68-11.74Q119.23-13.31 118.85-14.72L118.85-14.72L118.85-14.72Q118.46-16.13 118.21-17.25L118.21-17.25L118.21-17.25Q117.95-18.37 117.89-19.07L117.89-19.07L117.06-18.82L117.06-18.82Q116.67-16.77 116.13-14.02L116.13-14.02L116.13-14.02Q115.58-11.26 115.14-8.70L115.14-8.70L115.14-8.70Q114.56-5.70 113.98-2.62L113.98-2.62ZM120.70-37.89L118.66-27.71L118.66-27.71Q119.87-27.84 121.63-28.74L121.63-28.74L121.63-28.74Q123.39-29.63 124.99-30.88L124.99-30.88L124.99-30.88Q126.59-32.13 127.74-33.47L127.74-33.47L127.74-33.47Q128.90-34.82 128.90-35.84L128.90-35.84L128.90-35.84Q128.90-36.54 128.45-36.96L128.45-36.96L128.45-36.96Q128-37.38 127.20-37.60L127.20-37.60L127.20-37.60Q126.40-37.82 125.44-37.89L125.44-37.89L125.44-37.89Q124.48-37.95 123.46-37.95L123.46-37.95L123.46-37.95Q122.75-37.95 122.02-37.92L122.02-37.92L122.02-37.92Q121.28-37.89 120.70-37.89L120.70-37.89ZM152.96-3.14L132.29 0.06L140.67-45.44L160.90-47.17L160.90-47.17Q160.45-45.76 160.13-44.29L160.13-44.29L160.13-44.29Q159.81-43.07 159.52-41.76L159.52-41.76L159.52-41.76Q159.23-40.45 159.04-39.42L159.04-39.42L159.04-39.42Q158.40-39.36 157.22-39.33L157.22-39.33L157.22-39.33Q156.03-39.30 154.69-39.26L154.69-39.26L154.69-39.26Q153.34-39.23 151.97-39.23L151.97-39.23L151.97-39.23Q150.59-39.23 149.57-39.23L149.57-39.23L147.33-27.78L147.33-27.78Q149.31-27.90 151.04-27.97L151.04-27.97L151.04-27.97Q152.45-28.03 153.92-28.03L153.92-28.03L153.92-28.03Q155.39-28.03 156.10-28.10L156.10-28.10L156.10-28.10Q155.84-26.30 155.62-24.58L155.62-24.58L155.62-24.58Q155.39-22.85 155.07-21.06L155.07-21.06L155.07-21.06Q154.43-20.99 152.99-20.96L152.99-20.96L152.99-20.96Q151.55-20.93 150.08-20.86L150.08-20.86L150.08-20.86Q148.42-20.80 146.43-20.74L146.43-20.74L144.26-8.96L153.60-10.43L152.96-3.14ZM166.53-15.17L166.53-15.17Q164.67-15.17 162.82-15.04L162.82-15.04L162.82-15.04Q160.96-14.91 159.10-14.78L159.10-14.78L159.10-14.78Q161.09-22.66 162.98-30.46L162.98-30.46L162.98-30.46Q164.86-38.27 166.91-46.14L166.91-46.14L166.91-46.14Q168.13-46.34 169.70-46.53L169.70-46.53L169.70-46.53Q171.26-46.72 172.86-46.98L172.86-46.98L172.86-46.98Q174.46-47.23 175.97-47.42L175.97-47.42L175.97-47.42Q177.47-47.62 178.50-47.81L178.50-47.81L178.50-47.81Q175.04-39.74 172.19-31.58L172.19-31.58L172.19-31.58Q169.34-23.42 166.53-15.17L166.53-15.17ZM167.17-5.12L167.17-5.12Q167.17-3.90 166.62-2.69L166.62-2.69L166.62-2.69Q166.08-1.47 165.06-0.54L165.06-0.54L165.06-0.54Q164.03 0.38 162.50 0.93L162.50 0.93L162.50 0.93Q160.96 1.47 158.98 1.47L158.98 1.47L158.98 1.47Q157.63 1.47 156.54 0.96L156.54 0.96L156.54 0.96Q155.46 0.45 154.78-0.42L154.78-0.42L154.78-0.42Q154.11-1.28 153.73-2.37L153.73-2.37L153.73-2.37Q153.34-3.46 153.34-4.54L153.34-4.54L153.34-4.54Q153.34-5.76 153.73-6.88L153.73-6.88L153.73-6.88Q154.11-8 154.91-8.86L154.91-8.86L154.91-8.86Q155.71-9.73 156.90-10.30L156.90-10.30L156.90-10.30Q158.08-10.88 159.74-10.88L159.74-10.88L159.74-10.88Q163.46-10.88 165.31-9.12L165.31-9.12L165.31-9.12Q167.17-7.36 167.17-5.12L167.17-5.12Z" fill="#f00" stroke="#0f0" stroke-width="1.8"></path></g></g><g><g transform="translate(164.52626252174377, 99.64000511169434)"><path d="M21.18-3.14L0.51 0.06L8.90-45.44L29.12-47.17L29.12-47.17Q28.67-45.76 28.35-44.29L28.35-44.29L28.35-44.29Q28.03-43.07 27.74-41.76L27.74-41.76L27.74-41.76Q27.46-40.45 27.26-39.42L27.26-39.42L27.26-39.42Q26.62-39.36 25.44-39.33L25.44-39.33L25.44-39.33Q24.26-39.30 22.91-39.26L22.91-39.26L22.91-39.26Q21.57-39.23 20.19-39.23L20.19-39.23L20.19-39.23Q18.82-39.23 17.79-39.23L17.79-39.23L15.55-27.78L15.55-27.78Q17.54-27.90 19.26-27.97L19.26-27.97L19.26-27.97Q20.67-28.03 22.14-28.03L22.14-28.03L22.14-28.03Q23.62-28.03 24.32-28.10L24.32-28.10L24.32-28.10Q24.06-26.30 23.84-24.58L23.84-24.58L23.84-24.58Q23.62-22.85 23.30-21.06L23.30-21.06L23.30-21.06Q22.66-20.99 21.22-20.96L21.22-20.96L21.22-20.96Q19.78-20.93 18.30-20.86L18.30-20.86L18.30-20.86Q16.64-20.80 14.66-20.74L14.66-20.74L12.48-8.96L21.82-10.43L21.18-3.14ZM48.45-12.48L48.45-12.48Q47.55-8.83 45.92-6.27L45.92-6.27L45.92-6.27Q44.29-3.71 42.08-2.05L42.08-2.05L42.08-2.05Q39.87-0.38 37.38 0.38L37.38 0.38L37.38 0.38Q34.88 1.15 32.38 1.15L32.38 1.15L32.38 1.15Q30.91 1.15 29.38 0.67L29.38 0.67L29.38 0.67Q27.84 0.19 26.62-0.77L26.62-0.77L26.62-0.77Q25.41-1.73 24.61-3.20L24.61-3.20L24.61-3.20Q23.81-4.67 23.81-6.66L23.81-6.66L23.81-6.66Q23.81-6.91 23.81-7.17L23.81-7.17L23.81-7.17Q23.81-7.42 23.87-7.68L23.87-7.68L23.87-7.68Q24.13-10.30 24.70-14.02L24.70-14.02L24.70-14.02Q25.28-17.73 25.92-21.76L25.92-21.76L25.92-21.76Q26.56-25.79 27.33-29.86L27.33-29.86L27.33-29.86Q28.10-33.92 28.70-37.25L28.70-37.25L28.70-37.25Q29.31-40.58 29.76-42.78L29.76-42.78L29.76-42.78Q30.21-44.99 30.34-45.50L30.34-45.50L30.34-45.50Q31.68-45.63 33.54-45.82L33.54-45.82L33.54-45.82Q35.39-46.02 36.99-46.14L36.99-46.14L36.99-46.14Q38.98-46.34 40.90-46.53L40.90-46.53L40.90-46.53Q39.23-38.78 37.95-32.51L37.95-32.51L37.95-32.51Q37.38-29.82 36.83-27.14L36.83-27.14L36.83-27.14Q36.29-24.45 35.81-22.21L35.81-22.21L35.81-22.21Q35.33-19.97 34.98-18.34L34.98-18.34L34.98-18.34Q34.62-16.70 34.40-15.68L34.40-15.68L34.40-15.68Q34.18-14.66 33.89-13.09L33.89-13.09L33.89-13.09Q33.60-11.52 33.60-10.24L33.60-10.24L33.60-10.24Q33.60-9.22 34.11-8.54L34.11-8.54L34.11-8.54Q34.62-7.87 35.39-7.87L35.39-7.87L35.39-7.87Q36.48-7.87 37.18-8.74L37.18-8.74L37.18-8.74Q37.89-9.60 38.37-10.82L38.37-10.82L38.37-10.82Q38.85-12.03 39.07-13.28L39.07-13.28L39.07-13.28Q39.30-14.53 39.49-15.23L39.49-15.23L39.49-15.23Q39.87-17.09 40.35-19.36L40.35-19.36L40.35-19.36Q40.83-21.63 41.31-24.10L41.31-24.10L41.31-24.10Q41.79-26.56 42.27-29.12L42.27-29.12L42.27-29.12Q42.75-31.68 43.20-34.11L43.20-34.11L43.20-34.11Q44.29-39.74 45.31-45.76L45.31-45.76L55.04-46.40L55.04-46.40Q55.04-46.40 54.72-44.74L54.72-44.74L54.72-44.74Q54.40-43.07 53.89-40.32L53.89-40.32L53.89-40.32Q53.38-37.57 52.77-34.05L52.77-34.05L52.77-34.05Q52.16-30.53 51.39-26.72L51.39-26.72L51.39-26.72Q50.62-22.91 49.89-19.23L49.89-19.23L49.89-19.23Q49.15-15.55 48.45-12.48L48.45-12.48ZM75.97-13.76L75.97-13.76Q74.43-10.24 72.54-7.65L72.54-7.65L72.54-7.65Q70.66-5.06 68.58-3.30L68.58-3.30L68.58-3.30Q66.50-1.54 64.38-0.70L64.38-0.70L64.38-0.70Q62.27 0.13 60.29 0.13L60.29 0.13L60.29 0.13Q58.30 0.13 56.67-0.77L56.67-0.77L56.67-0.77Q55.04-1.66 53.82-3.46L53.82-3.46L53.82-3.46Q52.61-5.25 51.87-7.87L51.87-7.87L51.87-7.87Q51.14-10.50 51.14-14.02L51.14-14.02L51.14-14.02Q51.14-20.03 52.80-25.89L52.80-25.89L52.80-25.89Q54.46-31.74 57.47-36.42L57.47-36.42L57.47-36.42Q60.48-41.09 64.61-43.94L64.61-43.94L64.61-43.94Q68.74-46.78 73.73-46.78L73.73-46.78L73.73-46.78Q75.26-46.78 76.67-46.14L76.67-46.14L76.67-46.14Q78.08-45.50 79.10-44.35L79.10-44.35L79.10-44.35Q80.13-43.20 80.74-41.54L80.74-41.54L80.74-41.54Q81.34-39.87 81.34-37.82L81.34-37.82L81.34-37.82Q81.34-37.44 81.34-37.02L81.34-37.02L81.34-37.02Q81.34-36.61 81.28-36.16L81.28-36.16L72.90-33.92L72.90-33.92Q72.13-35.52 71.10-35.52L71.10-35.52L71.10-35.52Q70.08-35.52 68.96-34.34L68.96-34.34L68.96-34.34Q67.84-33.15 66.75-31.26L66.75-31.26L66.75-31.26Q65.66-29.38 64.64-27.04L64.64-27.04L64.64-27.04Q63.62-24.70 62.85-22.34L62.85-22.34L62.85-22.34Q62.08-19.97 61.60-17.82L61.60-17.82L61.60-17.82Q61.12-15.68 61.12-14.34L61.12-14.34L61.12-14.34Q61.12-12.29 61.66-11.46L61.66-11.46L61.66-11.46Q62.21-10.62 63.10-10.62L63.10-10.62L63.10-10.62Q63.81-10.62 64.70-11.17L64.70-11.17L64.70-11.17Q65.60-11.71 66.37-12.58L66.37-12.58L66.37-12.58Q67.14-13.44 67.78-14.53L67.78-14.53L67.78-14.53Q68.42-15.62 68.67-16.70L68.67-16.70L75.97-13.76ZM85.50-1.92L75.65 0.13L75.65 0.13Q77.44-8.83 79.10-17.34L79.10-17.34L79.10-17.34Q79.74-20.99 80.45-24.93L80.45-24.93L80.45-24.93Q81.15-28.86 81.76-32.70L81.76-32.70L81.76-32.70Q82.37-36.54 82.91-40.16L82.91-40.16L82.91-40.16Q83.46-43.78 83.78-46.72L83.78-46.72L83.78-46.72Q85.25-46.66 86.50-46.56L86.50-46.56L86.50-46.56Q87.74-46.46 88.96-46.40L88.96-46.40L88.96-46.40Q90.18-46.34 91.42-46.30L91.42-46.30L91.42-46.30Q92.67-46.27 94.14-46.27L94.14-46.27L94.14-46.27Q93.06-41.73 92-37.18L92-37.18L92-37.18Q90.94-32.64 90.05-28.03L90.05-28.03L96.38-28.74L96.38-28.74Q97.28-33.28 97.98-37.54L97.98-37.54L97.98-37.54Q98.69-41.79 99.84-46.34L99.84-46.34L99.84-46.34Q101.31-46.59 103.10-46.75L103.10-46.75L103.10-46.75Q104.90-46.91 106.43-47.04L106.43-47.04L106.43-47.04Q107.97-47.17 109.02-47.26L109.02-47.26L109.02-47.26Q110.08-47.36 110.08-47.36L110.08-47.36L110.08-47.36Q109.18-44.48 108.38-41.06L108.38-41.06L108.38-41.06Q107.58-37.63 106.82-33.95L106.82-33.95L106.82-33.95Q106.05-30.27 105.34-26.50L105.34-26.50L105.34-26.50Q104.64-22.72 104.06-19.33L104.06-19.33L104.06-19.33Q102.66-11.20 101.44-2.69L101.44-2.69L91.46-1.54L91.46-1.54Q92.29-5.38 92.93-9.02L92.93-9.02L92.93-9.02Q93.57-12.10 94.24-15.42L94.24-15.42L94.24-15.42Q94.91-18.75 95.30-21.12L95.30-21.12L89.09-20.54L89.09-20.54Q88.64-18.11 88.03-14.91L88.03-14.91L88.03-14.91Q87.42-11.71 86.91-8.83L86.91-8.83L86.91-8.83Q86.21-5.38 85.50-1.92L85.50-1.92ZM113.98-2.62L103.62 0.06L103.62 0.06Q105.34-8.45 106.94-16.58L106.94-16.58L106.94-16.58Q107.52-20.03 108.22-23.78L108.22-23.78L108.22-23.78Q108.93-27.52 109.54-31.20L109.54-31.20L109.54-31.20Q110.14-34.88 110.69-38.30L110.69-38.30L110.69-38.30Q111.23-41.73 111.55-44.54L111.55-44.54L111.55-44.54Q115.20-45.70 119.42-46.24L119.42-46.24L119.42-46.24Q123.65-46.78 127.81-46.78L127.81-46.78L127.81-46.78Q130.30-46.78 131.94-46.21L131.94-46.21L131.94-46.21Q133.57-45.63 134.50-44.58L134.50-44.58L134.50-44.58Q135.42-43.52 135.81-42.11L135.81-42.11L135.81-42.11Q136.19-40.70 136.19-38.98L136.19-38.98L136.19-38.98Q136.19-36.42 135.30-33.95L135.30-33.95L135.30-33.95Q134.40-31.49 132.90-29.28L132.90-29.28L132.90-29.28Q131.39-27.07 129.44-25.25L129.44-25.25L129.44-25.25Q127.49-23.42 125.25-22.27L125.25-22.27L125.25-22.27Q126.40-19.71 127.71-16.67L127.71-16.67L127.71-16.67Q129.02-13.63 130.18-10.88L130.18-10.88L130.18-10.88Q131.46-7.68 132.80-4.48L132.80-4.48L122.88-1.02L122.88-1.02Q121.60-5.12 120.58-8.70L120.58-8.70L120.58-8.70Q120.13-10.18 119.68-11.74L119.68-11.74L119.68-11.74Q119.23-13.31 118.85-14.72L118.85-14.72L118.85-14.72Q118.46-16.13 118.21-17.25L118.21-17.25L118.21-17.25Q117.95-18.37 117.89-19.07L117.89-19.07L117.06-18.82L117.06-18.82Q116.67-16.77 116.13-14.02L116.13-14.02L116.13-14.02Q115.58-11.26 115.14-8.70L115.14-8.70L115.14-8.70Q114.56-5.70 113.98-2.62L113.98-2.62ZM120.70-37.89L118.66-27.71L118.66-27.71Q119.87-27.84 121.63-28.74L121.63-28.74L121.63-28.74Q123.39-29.63 124.99-30.88L124.99-30.88L124.99-30.88Q126.59-32.13 127.74-33.47L127.74-33.47L127.74-33.47Q128.90-34.82 128.90-35.84L128.90-35.84L128.90-35.84Q128.90-36.54 128.45-36.96L128.45-36.96L128.45-36.96Q128-37.38 127.20-37.60L127.20-37.60L127.20-37.60Q126.40-37.82 125.44-37.89L125.44-37.89L125.44-37.89Q124.48-37.95 123.46-37.95L123.46-37.95L123.46-37.95Q122.75-37.95 122.02-37.92L122.02-37.92L122.02-37.92Q121.28-37.89 120.70-37.89L120.70-37.89ZM152.96-3.14L132.29 0.06L140.67-45.44L160.90-47.17L160.90-47.17Q160.45-45.76 160.13-44.29L160.13-44.29L160.13-44.29Q159.81-43.07 159.52-41.76L159.52-41.76L159.52-41.76Q159.23-40.45 159.04-39.42L159.04-39.42L159.04-39.42Q158.40-39.36 157.22-39.33L157.22-39.33L157.22-39.33Q156.03-39.30 154.69-39.26L154.69-39.26L154.69-39.26Q153.34-39.23 151.97-39.23L151.97-39.23L151.97-39.23Q150.59-39.23 149.57-39.23L149.57-39.23L147.33-27.78L147.33-27.78Q149.31-27.90 151.04-27.97L151.04-27.97L151.04-27.97Q152.45-28.03 153.92-28.03L153.92-28.03L153.92-28.03Q155.39-28.03 156.10-28.10L156.10-28.10L156.10-28.10Q155.84-26.30 155.62-24.58L155.62-24.58L155.62-24.58Q155.39-22.85 155.07-21.06L155.07-21.06L155.07-21.06Q154.43-20.99 152.99-20.96L152.99-20.96L152.99-20.96Q151.55-20.93 150.08-20.86L150.08-20.86L150.08-20.86Q148.42-20.80 146.43-20.74L146.43-20.74L144.26-8.96L153.60-10.43L152.96-3.14ZM166.53-15.17L166.53-15.17Q164.67-15.17 162.82-15.04L162.82-15.04L162.82-15.04Q160.96-14.91 159.10-14.78L159.10-14.78L159.10-14.78Q161.09-22.66 162.98-30.46L162.98-30.46L162.98-30.46Q164.86-38.27 166.91-46.14L166.91-46.14L166.91-46.14Q168.13-46.34 169.70-46.53L169.70-46.53L169.70-46.53Q171.26-46.72 172.86-46.98L172.86-46.98L172.86-46.98Q174.46-47.23 175.97-47.42L175.97-47.42L175.97-47.42Q177.47-47.62 178.50-47.81L178.50-47.81L178.50-47.81Q175.04-39.74 172.19-31.58L172.19-31.58L172.19-31.58Q169.34-23.42 166.53-15.17L166.53-15.17ZM167.17-5.12L167.17-5.12Q167.17-3.90 166.62-2.69L166.62-2.69L166.62-2.69Q166.08-1.47 165.06-0.54L165.06-0.54L165.06-0.54Q164.03 0.38 162.50 0.93L162.50 0.93L162.50 0.93Q160.96 1.47 158.98 1.47L158.98 1.47L158.98 1.47Q157.63 1.47 156.54 0.96L156.54 0.96L156.54 0.96Q155.46 0.45 154.78-0.42L154.78-0.42L154.78-0.42Q154.11-1.28 153.73-2.37L153.73-2.37L153.73-2.37Q153.34-3.46 153.34-4.54L153.34-4.54L153.34-4.54Q153.34-5.76 153.73-6.88L153.73-6.88L153.73-6.88Q154.11-8 154.91-8.86L154.91-8.86L154.91-8.86Q155.71-9.73 156.90-10.30L156.90-10.30L156.90-10.30Q158.08-10.88 159.74-10.88L159.74-10.88L159.74-10.88Q163.46-10.88 165.31-9.12L165.31-9.12L165.31-9.12Q167.17-7.36 167.17-5.12L167.17-5.12Z" fill="none" stroke="#fff" stroke-width="2.1"></path></g></g></g><style>text {
  font-size: 64px;
  font-family: Arial Black;
  dominant-baseline: central;
  text-anchor: middle;
}</style></svg>