<svg width="320.03749999999997px" height="131.6px" xmlns="http://www.w3.org/2000/svg" viewBox="89.98125000000002 9.200000000000003 320.03749999999997 131.6" style="background: none;" preserveAspectRatio="xMidYMid"><defs><filter id="editing-extrude-glow"><feFlood flood-color="#bbcedd" result="flood-1"></feFlood><feMorphology operator="erode" radius="1" in="SourceAlpha" result="erode"></feMorphology><feComposite operator="in" in="flood-1" in2="erode" result="comp1"></feComposite><feConvolveMatrix order="1,1" divisor="1" in="comp1" result="convolve" kernelMatrix="1"></feConvolveMatrix><feOffset dx="-1" dy="0" in="convolve" result="extrude"></feOffset><feComposite operator="in" in="flood-1" in2="extrude" result="comp-extrude"></feComposite><feFlood flood-color="#dce4eb" result="flood-2"></feFlood><feComposite operator="in" in="flood-2" in2="SourceAlpha" result="comp2"></feComposite><feMorphology operator="dilate" radius="1" in="comp2" result="dilate"></feMorphology><feOffset dx="-1.5" dy="0" in="dilate" result="offset"></feOffset><feGaussianBlur in="offset" stdDeviation="5.8" result="blur"></feGaussianBlur><feComponentTransfer in="blur" result="shadow"><feFuncA type="linear" slope="0.8" intercept="-0.2"></feFuncA></feComponentTransfer><feMerge><feMergeNode in="shadow"></feMergeNode><feMergeNode in="comp-extrude"></feMergeNode><feMergeNode in="SourceGraphic"></feMergeNode></feMerge></filter></defs><g filter="url(#editing-extrude-glow)"><g transform="translate(139.49998712539673, 98.18500137329102)"><path d="M3.19-46.06L38.25-46.06L38.25-40.94L24.50-40.94L24.50 0L16.94 0L16.94-40.94L3.19-40.94L3.19-46.06ZM78.31 0L70.38 0L61.69-16.69L61.69-16.69Q61.50-16.69 61.19-16.66L61.19-16.66L61.19-16.66Q60.88-16.63 60.22-16.63L60.22-16.63L60.22-16.63Q59.56-16.63 58.22-16.63L58.22-16.63L58.22-16.63Q56.88-16.63 54.56-16.63L54.56-16.63L54.56 0L47.06 0L47.06-46.06L60.31-46.06L60.31-46.06Q63.25-46.06 66.13-45.13L66.13-45.13L66.13-45.13Q69-44.19 71.28-42.31L71.28-42.31L71.28-42.31Q73.56-40.44 74.97-37.78L74.97-37.78L74.97-37.78Q76.38-35.13 76.38-31.81L76.38-31.81L76.38-31.81Q76.38-26.81 74.06-23.31L74.06-23.31L74.06-23.31Q71.75-19.81 67.81-18.13L67.81-18.13L78.31 0ZM54.56-40.38L54.56-22.13L61.38-22.13L61.38-22.13Q62.75-22.13 64.13-22.59L64.13-22.59L64.13-22.59Q65.50-23.06 66.63-24.13L66.63-24.13L66.63-24.13Q67.75-25.19 68.44-27.09L68.44-27.09L68.44-27.09Q69.13-29 69.13-31.81L69.13-31.81L69.13-31.81Q69.13-32.94 68.81-34.41L68.81-34.41L68.81-34.41Q68.50-35.88 67.53-37.22L67.53-37.22L67.53-37.22Q66.56-38.56 64.81-39.47L64.81-39.47L64.81-39.47Q63.06-40.38 60.19-40.38L60.19-40.38L54.56-40.38ZM116.06-46.06L123.63-46.06L123.63-23.25L123.63-23.25Q123.63-17.44 122.34-13L122.34-13L122.34-13Q121.06-8.56 118.75-5.63L118.75-5.63L118.75-5.63Q116.44-2.69 113.13-1.19L113.13-1.19L113.13-1.19Q109.81 0.31 105.75 0.31L105.75 0.31L105.75 0.31Q101.63 0.31 98.34-1.19L98.34-1.19L98.34-1.19Q95.06-2.69 92.72-5.63L92.72-5.63L92.72-5.63Q90.38-8.56 89.09-13L89.09-13L89.09-13Q87.81-17.44 87.81-23.25L87.81-23.25L87.81-46.06L95.44-46.06L95.44-24L95.44-24Q95.44-18.88 96.16-15.38L96.16-15.38L96.16-15.38Q96.88-11.88 98.19-9.78L98.19-9.78L98.19-9.78Q99.50-7.69 101.38-6.75L101.38-6.75L101.38-6.75Q103.25-5.81 105.56-5.81L105.56-5.81L105.56-5.81Q107.94-5.81 109.88-6.69L109.88-6.69L109.88-6.69Q111.81-7.56 113.19-9.63L113.19-9.63L113.19-9.63Q114.56-11.69 115.31-15.19L115.31-15.19L115.31-15.19Q116.06-18.69 116.06-24L116.06-24L116.06-46.06ZM155.81-14.56L169.44-46.06L177.06-46.06L177.06 0L169.44 0L169.44-31.69L159.13-6.06L152.50-6.06L142.13-31.69L142.13 0L134.50 0L134.50-46.06L142.13-46.06L155.81-14.56ZM196-16.63L196 0L188.50 0L188.50-46.06L201.75-46.06L201.75-46.06Q204.69-46.06 207.56-45.13L207.56-45.13L207.56-45.13Q210.44-44.19 212.72-42.31L212.72-42.31L212.72-42.31Q215-40.44 216.41-37.78L216.41-37.78L216.41-37.78Q217.81-35.13 217.81-31.81L217.81-31.81L217.81-31.81Q217.81-28.31 216.63-25.47L216.63-25.47L216.63-25.47Q215.44-22.63 213.31-20.69L213.31-20.69L213.31-20.69Q211.19-18.75 208.19-17.69L208.19-17.69L208.19-17.69Q205.19-16.63 201.56-16.63L201.56-16.63L196-16.63ZM201.63-40.38L196-40.38L196-22.13L202.88-22.13L202.88-22.13Q204.25-22.13 205.59-22.59L205.59-22.59L205.59-22.59Q206.94-23.06 208.06-24.13L208.06-24.13L208.06-24.13Q209.19-25.19 209.88-27.09L209.88-27.09L209.88-27.09Q210.56-29 210.56-31.81L210.56-31.81L210.56-31.81Q210.56-32.94 210.25-34.41L210.25-34.41L210.25-34.41Q209.94-35.88 208.97-37.22L208.97-37.22L208.97-37.22Q208-38.56 206.25-39.47L206.25-39.47L206.25-39.47Q204.50-40.38 201.63-40.38L201.63-40.38Z" fill="#85a2b6"></path></g></g><style>text {
  font-size: 64px;
  font-family: Arial Black;
  dominant-baseline: central;
  text-anchor: middle;
}</style></svg>