<svg width="331.01807861328126px" height="138.8px" xmlns="http://www.w3.org/2000/svg" viewBox="84.49096069335937 5.599999999999994 331.01807861328126 138.8" style="background: none;" preserveAspectRatio="xMidYMid"><defs><filter id="editing-vintage" x="-100%" y="-100%" width="300%" height="300%"><feConvolveMatrix in="SourceGraphic" result="extrude" order="6,6" divisor="1" kernelMatrix="1,0,0,0,0,0,0,1,0,0,0,0,0,0,1,0,0,0,0,0,0,1,0,0,0,0,0,0,1,0,0,0,0,0,0,1"> </feConvolveMatrix><feFlood flood-color="#900" result="flood-extrude"></feFlood><feComposite operator="in" in="flood-extrude" in2="extrude" result="extrude-color"></feComposite><feOffset dx="3" dy="3" in="extrude-color" result="extrude-offset"></feOffset><feColorMatrix in="SourceGraphic" result="stroke" type="matrix" values="0 0 0 0 0 0 0 0 0 0 0 0 0 0 0 0 1 0 0 0 "></feColorMatrix><feColorMatrix in="SourceGraphic" result="fill" type="matrix" values="0 0 0 0 0 0 0 0 0 0 0 0 0 0 0 1 0 0 1 0 "></feColorMatrix><feConvolveMatrix in="stroke" result="inner-shadow" order="5,5" divisor="1" kernelMatrix="1 0 0 0 0 0 1 0 0 0 0 0 1 0 0 0 0 0 1 0 0 0 0 0 1 "></feConvolveMatrix><feOffset dx="1" dy="1" in="inner-shadow" result="offset"></feOffset><feComposite operator="in" in="offset" in2="SourceAlpha" result="comp"></feComposite><feFlood flood-color="#000" result="flood3"></feFlood><feComposite operator="in" in="flood3" in2="comp" result="comp2"></feComposite><feColorMatrix in="comp2" result="comp3" type="matrix" values="1 0 0 0 0 0 1 0 0 0 0 0 1 0 0 0 0 0 0.5 0 "></feColorMatrix><feFlood flood-color="#f00" result="flood1"></feFlood><feComposite operator="in" in="flood1" in2="fill" result="fill2"></feComposite><feFlood flood-color="#fff" result="flood2"></feFlood><feComposite operator="in" in="flood2" in2="stroke" result="stroke2"></feComposite><feMerge result="obj"><feMergeNode in="extrude-offset"></feMergeNode><feMergeNode in="fill2"></feMergeNode><feMergeNode in="comp3"></feMergeNode></feMerge><feConvolveMatrix in="SourceAlpha" result="shadow" order="6,6" divisor="1" kernelMatrix="1,0,0,0,0,0,0,1,0,0,0,0,0,0,1,0,0,0,0,0,0,1,0,0,0,0,0,0,1,0,0,0,0,0,0,1"></feConvolveMatrix><feOffset dx="9" dy="9" in="shadow" result="shadow-offset"></feOffset><feFlood flood-color="#444444" result="flood-shadow"></feFlood><feComposite operator="in" in="flood-shadow" in2="shadow-offset" result="shadow-color"></feComposite><feMerge><feMergeNode in="shadow-color"></feMergeNode><feMergeNode in="obj"></feMergeNode></feMerge></filter></defs><g transform="translate(-6,-6)"><g filter="url(#editing-vintage)"><g transform="translate(140.4805868268013, 106.57000160217285)"><path d="M27.14-4.02L0.66 0.08L11.40-58.22L37.31-60.43L37.31-60.43Q36.74-58.63 36.33-56.74L36.33-56.74L36.33-56.74Q35.92-55.19 35.55-53.51L35.55-53.51L35.55-53.51Q35.18-51.82 34.93-50.51L34.93-50.51L34.93-50.51Q34.11-50.43 32.59-50.39L32.59-50.39L32.59-50.39Q31.08-50.35 29.36-50.31L29.36-50.31L29.36-50.31Q27.63-50.27 25.87-50.27L25.87-50.27L25.87-50.27Q24.11-50.27 22.80-50.27L22.80-50.27L19.93-35.59L19.93-35.59Q22.47-35.75 24.68-35.83L24.68-35.83L24.68-35.83Q26.49-35.92 28.37-35.92L28.37-35.92L28.37-35.92Q30.26-35.92 31.16-36.00L31.16-36.00L31.16-36.00Q30.83-33.70 30.55-31.49L30.55-31.49L30.55-31.49Q30.26-29.27 29.85-26.98L29.85-26.98L29.85-26.98Q29.03-26.90 27.18-26.86L27.18-26.86L27.18-26.86Q25.34-26.81 23.45-26.73L23.45-26.73L23.45-26.73Q21.32-26.65 18.78-26.57L18.78-26.57L15.99-11.48L27.96-13.37L27.14-4.02ZM62.07-15.99L62.07-15.99Q60.93-11.32 58.84-8.04L58.84-8.04L58.84-8.04Q56.74-4.76 53.91-2.62L53.91-2.62L53.91-2.62Q51.09-0.49 47.89 0.49L47.89 0.49L47.89 0.49Q44.69 1.48 41.49 1.48L41.49 1.48L41.49 1.48Q39.61 1.48 37.64 0.86L37.64 0.86L37.64 0.86Q35.67 0.25 34.11-0.98L34.11-0.98L34.11-0.98Q32.55-2.21 31.53-4.10L31.53-4.10L31.53-4.10Q30.50-5.99 30.50-8.53L30.50-8.53L30.50-8.53Q30.50-8.86 30.50-9.18L30.50-9.18L30.50-9.18Q30.50-9.51 30.59-9.84L30.59-9.84L30.59-9.84Q30.91-13.20 31.65-17.96L31.65-17.96L31.65-17.96Q32.39-22.71 33.21-27.88L33.21-27.88L33.21-27.88Q34.03-33.05 35.01-38.25L35.01-38.25L35.01-38.25Q36.00-43.46 36.78-47.72L36.78-47.72L36.78-47.72Q37.56-51.99 38.13-54.82L38.13-54.82L38.13-54.82Q38.70-57.65 38.87-58.30L38.87-58.30L38.87-58.30Q40.59-58.47 42.97-58.71L42.97-58.71L42.97-58.71Q45.35-58.96 47.40-59.12L47.40-59.12L47.40-59.12Q49.94-59.37 52.40-59.61L52.40-59.61L52.40-59.61Q50.27-49.69 48.63-41.66L48.63-41.66L48.63-41.66Q47.89-38.21 47.19-34.77L47.19-34.77L47.19-34.77Q46.49-31.32 45.88-28.45L45.88-28.45L45.88-28.45Q45.26-25.58 44.81-23.49L44.81-23.49L44.81-23.49Q44.36-21.40 44.08-20.09L44.08-20.09L44.08-20.09Q43.79-18.78 43.42-16.77L43.42-16.77L43.42-16.77Q43.05-14.76 43.05-13.12L43.05-13.12L43.05-13.12Q43.05-11.81 43.71-10.95L43.71-10.95L43.71-10.95Q44.36-10.09 45.35-10.09L45.35-10.09L45.35-10.09Q46.74-10.09 47.64-11.19L47.64-11.19L47.64-11.19Q48.54-12.30 49.16-13.86L49.16-13.86L49.16-13.86Q49.77-15.42 50.06-17.02L50.06-17.02L50.06-17.02Q50.35-18.61 50.59-19.52L50.59-19.52L50.59-19.52Q51.09-21.89 51.70-24.80L51.70-24.80L51.70-24.80Q52.32-27.72 52.93-30.87L52.93-30.87L52.93-30.87Q53.55-34.03 54.16-37.31L54.16-37.31L54.16-37.31Q54.78-40.59 55.35-43.71L55.35-43.71L55.35-43.71Q56.74-50.92 58.06-58.63L58.06-58.63L70.52-59.45L70.52-59.45Q70.52-59.45 70.11-57.32L70.11-57.32L70.11-57.32Q69.70-55.19 69.04-51.66L69.04-51.66L69.04-51.66Q68.39-48.13 67.61-43.62L67.61-43.62L67.61-43.62Q66.83-39.11 65.85-34.23L65.85-34.23L65.85-34.23Q64.86-29.36 63.92-24.64L63.92-24.64L63.92-24.64Q62.98-19.93 62.07-15.99L62.07-15.99ZM97.33-17.63L97.33-17.63Q95.37-13.12 92.95-9.80L92.95-9.80L92.95-9.80Q90.53-6.48 87.86-4.22L87.86-4.22L87.86-4.22Q85.20-1.97 82.49-0.90L82.49-0.90L82.49-0.90Q79.79 0.16 77.24 0.16L77.24 0.16L77.24 0.16Q74.70 0.16 72.61-0.98L72.61-0.98L72.61-0.98Q70.52-2.13 68.96-4.43L68.96-4.43L68.96-4.43Q67.40-6.72 66.46-10.09L66.46-10.09L66.46-10.09Q65.52-13.45 65.52-17.96L65.52-17.96L65.52-17.96Q65.52-25.67 67.65-33.17L67.65-33.17L67.65-33.17Q69.78-40.67 73.64-46.66L73.64-46.66L73.64-46.66Q77.49-52.64 82.78-56.29L82.78-56.29L82.78-56.29Q88.07-59.94 94.46-59.94L94.46-59.94L94.46-59.94Q96.43-59.94 98.24-59.12L98.24-59.12L98.24-59.12Q100.04-58.30 101.35-56.83L101.35-56.83L101.35-56.83Q102.66-55.35 103.44-53.22L103.44-53.22L103.44-53.22Q104.22-51.09 104.22-48.46L104.22-48.46L104.22-48.46Q104.22-47.97 104.22-47.44L104.22-47.44L104.22-47.44Q104.22-46.90 104.14-46.33L104.14-46.33L93.40-43.46L93.40-43.46Q92.41-45.51 91.10-45.51L91.10-45.51L91.10-45.51Q89.79-45.51 88.36-43.99L88.36-43.99L88.36-43.99Q86.92-42.48 85.53-40.06L85.53-40.06L85.53-40.06Q84.13-37.64 82.82-34.65L82.82-34.65L82.82-34.65Q81.51-31.65 80.52-28.62L80.52-28.62L80.52-28.62Q79.54-25.58 78.93-22.84L78.93-22.84L78.93-22.84Q78.31-20.09 78.31-18.37L78.31-18.37L78.31-18.37Q78.31-15.74 79.01-14.68L79.01-14.68L79.01-14.68Q79.70-13.61 80.85-13.61L80.85-13.61L80.85-13.61Q81.75-13.61 82.90-14.31L82.90-14.31L82.90-14.31Q84.05-15.01 85.03-16.11L85.03-16.11L85.03-16.11Q86.02-17.22 86.84-18.61L86.84-18.61L86.84-18.61Q87.66-20.01 87.99-21.40L87.99-21.40L97.33-17.63ZM109.55-2.46L96.92 0.16L96.92 0.16Q99.22-11.32 101.35-22.22L101.35-22.22L101.35-22.22Q102.17-26.90 103.07-31.94L103.07-31.94L103.07-31.94Q103.98-36.98 104.75-41.90L104.75-41.90L104.75-41.90Q105.53-46.82 106.23-51.46L106.23-51.46L106.23-51.46Q106.93-56.09 107.34-59.86L107.34-59.86L107.34-59.86Q109.22-59.78 110.82-59.66L110.82-59.66L110.82-59.66Q112.42-59.53 113.98-59.45L113.98-59.45L113.98-59.45Q115.54-59.37 117.14-59.33L117.14-59.33L117.14-59.33Q118.74-59.29 120.62-59.29L120.62-59.29L120.62-59.29Q119.23-53.46 117.88-47.64L117.88-47.64L117.88-47.64Q116.52-41.82 115.37-35.92L115.37-35.92L123.49-36.82L123.49-36.82Q124.64-42.64 125.54-48.09L125.54-48.09L125.54-48.09Q126.44-53.55 127.92-59.37L127.92-59.37L127.92-59.37Q129.81-59.70 132.10-59.90L132.10-59.90L132.10-59.90Q134.40-60.11 136.37-60.27L136.37-60.27L136.37-60.27Q138.33-60.43 139.69-60.56L139.69-60.56L139.69-60.56Q141.04-60.68 141.04-60.68L141.04-60.68L141.04-60.68Q139.89-56.99 138.87-52.60L138.87-52.60L138.87-52.60Q137.84-48.22 136.86-43.50L136.86-43.50L136.86-43.50Q135.87-38.79 134.97-33.95L134.97-33.95L134.97-33.95Q134.07-29.11 133.33-24.76L133.33-24.76L133.33-24.76Q131.53-14.35 129.97-3.44L129.97-3.44L117.18-1.97L117.18-1.97Q118.24-6.89 119.06-11.56L119.06-11.56L119.06-11.56Q119.88-15.50 120.75-19.76L120.75-19.76L120.75-19.76Q121.61-24.03 122.10-27.06L122.10-27.06L114.14-26.32L114.14-26.32Q113.57-23.21 112.79-19.11L112.79-19.11L112.79-19.11Q112.01-15.01 111.36-11.32L111.36-11.32L111.36-11.32Q110.45-6.89 109.55-2.46L109.55-2.46ZM146.04-3.36L132.76 0.08L132.76 0.08Q134.97-10.82 137.02-21.24L137.02-21.24L137.02-21.24Q137.76-25.67 138.66-30.46L138.66-30.46L138.66-30.46Q139.56-35.26 140.34-39.98L140.34-39.98L140.34-39.98Q141.12-44.69 141.82-49.08L141.82-49.08L141.82-49.08Q142.52-53.46 142.93-57.07L142.93-57.07L142.93-57.07Q147.60-58.55 153.01-59.25L153.01-59.25L153.01-59.25Q158.42-59.94 163.75-59.94L163.75-59.94L163.75-59.94Q166.95-59.94 169.04-59.20L169.04-59.20L169.04-59.20Q171.13-58.47 172.32-57.11L172.32-57.11L172.32-57.11Q173.51-55.76 174.00-53.96L174.00-53.96L174.00-53.96Q174.50-52.15 174.50-49.94L174.50-49.94L174.50-49.94Q174.50-46.66 173.35-43.50L173.35-43.50L173.35-43.50Q172.20-40.34 170.27-37.52L170.27-37.52L170.27-37.52Q168.35-34.69 165.84-32.35L165.84-32.35L165.84-32.35Q163.34-30.01 160.47-28.54L160.47-28.54L160.47-28.54Q161.95-25.26 163.63-21.36L163.63-21.36L163.63-21.36Q165.31-17.47 166.79-13.94L166.79-13.94L166.79-13.94Q168.43-9.84 170.15-5.74L170.15-5.74L157.44-1.31L157.44-1.31Q155.80-6.56 154.49-11.15L154.49-11.15L154.49-11.15Q153.91-13.04 153.34-15.05L153.34-15.05L153.34-15.05Q152.77-17.06 152.27-18.86L152.27-18.86L152.27-18.86Q151.78-20.66 151.45-22.10L151.45-22.10L151.45-22.10Q151.13-23.53 151.04-24.44L151.04-24.44L149.98-24.11L149.98-24.11Q149.49-21.48 148.79-17.96L148.79-17.96L148.79-17.96Q148.09-14.43 147.52-11.15L147.52-11.15L147.52-11.15Q146.78-7.30 146.04-3.36L146.04-3.36ZM154.65-48.54L152.03-35.51L152.03-35.51Q153.59-35.67 155.84-36.82L155.84-36.82L155.84-36.82Q158.10-37.97 160.15-39.57L160.15-39.57L160.15-39.57Q162.20-41.16 163.67-42.89L163.67-42.89L163.67-42.89Q165.15-44.61 165.15-45.92L165.15-45.92L165.15-45.92Q165.15-46.82 164.57-47.36L164.57-47.36L164.57-47.36Q164-47.89 162.98-48.18L162.98-48.18L162.98-48.18Q161.95-48.46 160.72-48.54L160.72-48.54L160.72-48.54Q159.49-48.63 158.18-48.63L158.18-48.63L158.18-48.63Q157.28-48.63 156.33-48.59L156.33-48.59L156.33-48.59Q155.39-48.54 154.65-48.54L154.65-48.54ZM195.98-4.02L169.49 0.08L180.24-58.22L206.15-60.43L206.15-60.43Q205.57-58.63 205.16-56.74L205.16-56.74L205.16-56.74Q204.75-55.19 204.39-53.51L204.39-53.51L204.39-53.51Q204.02-51.82 203.77-50.51L203.77-50.51L203.77-50.51Q202.95-50.43 201.43-50.39L201.43-50.39L201.43-50.39Q199.92-50.35 198.19-50.31L198.19-50.31L198.19-50.31Q196.47-50.27 194.71-50.27L194.71-50.27L194.71-50.27Q192.95-50.27 191.63-50.27L191.63-50.27L188.76-35.59L188.76-35.59Q191.31-35.75 193.52-35.83L193.52-35.83L193.52-35.83Q195.32-35.92 197.21-35.92L197.21-35.92L197.21-35.92Q199.10-35.92 200.00-36.00L200.00-36.00L200.00-36.00Q199.67-33.70 199.38-31.49L199.38-31.49L199.38-31.49Q199.10-29.27 198.69-26.98L198.69-26.98L198.69-26.98Q197.87-26.90 196.02-26.86L196.02-26.86L196.02-26.86Q194.18-26.81 192.29-26.73L192.29-26.73L192.29-26.73Q190.16-26.65 187.62-26.57L187.62-26.57L184.83-11.48L196.80-13.37L195.98-4.02ZM213.36-19.43L213.36-19.43Q210.99-19.43 208.61-19.27L208.61-19.27L208.61-19.27Q206.23-19.11 203.85-18.94L203.85-18.94L203.85-18.94Q206.39-29.03 208.81-39.03L208.81-39.03L208.81-39.03Q211.23-49.04 213.86-59.12L213.86-59.12L213.86-59.12Q215.41-59.37 217.42-59.61L217.42-59.61L217.42-59.61Q219.43-59.86 221.48-60.19L221.48-60.19L221.48-60.19Q223.53-60.52 225.46-60.76L225.46-60.76L225.46-60.76Q227.39-61.01 228.70-61.25L228.70-61.25L228.70-61.25Q224.27-50.92 220.62-40.47L220.62-40.47L220.62-40.47Q216.97-30.01 213.36-19.43L213.36-19.43ZM214.18-6.56L214.18-6.56Q214.18-5.00 213.49-3.44L213.49-3.44L213.49-3.44Q212.79-1.89 211.48-0.70L211.48-0.70L211.48-0.70Q210.17 0.49 208.20 1.19L208.20 1.19L208.20 1.19Q206.23 1.89 203.69 1.89L203.69 1.89L203.69 1.89Q201.97 1.89 200.57 1.23L200.57 1.23L200.57 1.23Q199.18 0.57 198.32-0.53L198.32-0.53L198.32-0.53Q197.46-1.64 196.96-3.03L196.96-3.03L196.96-3.03Q196.47-4.43 196.47-5.82L196.47-5.82L196.47-5.82Q196.47-7.38 196.96-8.81L196.96-8.81L196.96-8.81Q197.46-10.25 198.48-11.36L198.48-11.36L198.48-11.36Q199.51-12.46 201.02-13.20L201.02-13.20L201.02-13.20Q202.54-13.94 204.67-13.94L204.67-13.94L204.67-13.94Q209.43-13.94 211.81-11.69L211.81-11.69L211.81-11.69Q214.18-9.43 214.18-6.56L214.18-6.56Z" fill="#f00" stroke="#0f0" stroke-width="1.8"></path></g></g><g><g transform="translate(140.4832723736763, 106.57000350952148)"><path d="M27.14-4.02L0.66 0.08L11.40-58.22L37.31-60.43L37.31-60.43Q36.74-58.63 36.33-56.74L36.33-56.74L36.33-56.74Q35.92-55.19 35.55-53.51L35.55-53.51L35.55-53.51Q35.18-51.82 34.93-50.51L34.93-50.51L34.93-50.51Q34.11-50.43 32.59-50.39L32.59-50.39L32.59-50.39Q31.08-50.35 29.36-50.31L29.36-50.31L29.36-50.31Q27.63-50.27 25.87-50.27L25.87-50.27L25.87-50.27Q24.11-50.27 22.80-50.27L22.80-50.27L19.93-35.59L19.93-35.59Q22.47-35.75 24.68-35.83L24.68-35.83L24.68-35.83Q26.49-35.92 28.37-35.92L28.37-35.92L28.37-35.92Q30.26-35.92 31.16-36.00L31.16-36.00L31.16-36.00Q30.83-33.70 30.55-31.49L30.55-31.49L30.55-31.49Q30.26-29.27 29.85-26.98L29.85-26.98L29.85-26.98Q29.03-26.90 27.18-26.86L27.18-26.86L27.18-26.86Q25.34-26.81 23.45-26.73L23.45-26.73L23.45-26.73Q21.32-26.65 18.78-26.57L18.78-26.57L15.99-11.48L27.96-13.37L27.14-4.02ZM62.07-15.99L62.07-15.99Q60.93-11.32 58.84-8.04L58.84-8.04L58.84-8.04Q56.74-4.76 53.91-2.62L53.91-2.62L53.91-2.62Q51.09-0.49 47.89 0.49L47.89 0.49L47.89 0.49Q44.69 1.48 41.49 1.48L41.49 1.48L41.49 1.48Q39.61 1.48 37.64 0.86L37.64 0.86L37.64 0.86Q35.67 0.25 34.11-0.98L34.11-0.98L34.11-0.98Q32.55-2.21 31.53-4.10L31.53-4.10L31.53-4.10Q30.50-5.99 30.50-8.53L30.50-8.53L30.50-8.53Q30.50-8.86 30.50-9.18L30.50-9.18L30.50-9.18Q30.50-9.51 30.59-9.84L30.59-9.84L30.59-9.84Q30.91-13.20 31.65-17.96L31.65-17.96L31.65-17.96Q32.39-22.71 33.21-27.88L33.21-27.88L33.21-27.88Q34.03-33.05 35.01-38.25L35.01-38.25L35.01-38.25Q36.00-43.46 36.78-47.72L36.78-47.72L36.78-47.72Q37.56-51.99 38.13-54.82L38.13-54.82L38.13-54.82Q38.70-57.65 38.87-58.30L38.87-58.30L38.87-58.30Q40.59-58.47 42.97-58.71L42.97-58.71L42.97-58.71Q45.35-58.96 47.40-59.12L47.40-59.12L47.40-59.12Q49.94-59.37 52.40-59.61L52.40-59.61L52.40-59.61Q50.27-49.69 48.63-41.66L48.63-41.66L48.63-41.66Q47.89-38.21 47.19-34.77L47.19-34.77L47.19-34.77Q46.49-31.32 45.88-28.45L45.88-28.45L45.88-28.45Q45.26-25.58 44.81-23.49L44.81-23.49L44.81-23.49Q44.36-21.40 44.08-20.09L44.08-20.09L44.08-20.09Q43.79-18.78 43.42-16.77L43.42-16.77L43.42-16.77Q43.05-14.76 43.05-13.12L43.05-13.12L43.05-13.12Q43.05-11.81 43.71-10.95L43.71-10.95L43.71-10.95Q44.36-10.09 45.35-10.09L45.35-10.09L45.35-10.09Q46.74-10.09 47.64-11.19L47.64-11.19L47.64-11.19Q48.54-12.30 49.16-13.86L49.16-13.86L49.16-13.86Q49.77-15.42 50.06-17.02L50.06-17.02L50.06-17.02Q50.35-18.61 50.59-19.52L50.59-19.52L50.59-19.52Q51.09-21.89 51.70-24.80L51.70-24.80L51.70-24.80Q52.32-27.72 52.93-30.87L52.93-30.87L52.93-30.87Q53.55-34.03 54.16-37.31L54.16-37.31L54.16-37.31Q54.78-40.59 55.35-43.71L55.35-43.71L55.35-43.71Q56.74-50.92 58.06-58.63L58.06-58.63L70.52-59.45L70.52-59.45Q70.52-59.45 70.11-57.32L70.11-57.32L70.11-57.32Q69.70-55.19 69.04-51.66L69.04-51.66L69.04-51.66Q68.39-48.13 67.61-43.62L67.61-43.62L67.61-43.62Q66.83-39.11 65.85-34.23L65.85-34.23L65.85-34.23Q64.86-29.36 63.92-24.64L63.92-24.64L63.92-24.64Q62.98-19.93 62.07-15.99L62.07-15.99ZM97.33-17.63L97.33-17.63Q95.37-13.12 92.95-9.80L92.95-9.80L92.95-9.80Q90.53-6.48 87.86-4.22L87.86-4.22L87.86-4.22Q85.20-1.97 82.49-0.90L82.49-0.90L82.49-0.90Q79.79 0.16 77.24 0.16L77.24 0.16L77.24 0.16Q74.70 0.16 72.61-0.98L72.61-0.98L72.61-0.98Q70.52-2.13 68.96-4.43L68.96-4.43L68.96-4.43Q67.40-6.72 66.46-10.09L66.46-10.09L66.46-10.09Q65.52-13.45 65.52-17.96L65.52-17.96L65.52-17.96Q65.52-25.67 67.65-33.17L67.65-33.17L67.65-33.17Q69.78-40.67 73.64-46.66L73.64-46.66L73.64-46.66Q77.49-52.64 82.78-56.29L82.78-56.29L82.78-56.29Q88.07-59.94 94.46-59.94L94.46-59.94L94.46-59.94Q96.43-59.94 98.24-59.12L98.24-59.12L98.24-59.12Q100.04-58.30 101.35-56.83L101.35-56.83L101.35-56.83Q102.66-55.35 103.44-53.22L103.44-53.22L103.44-53.22Q104.22-51.09 104.22-48.46L104.22-48.46L104.22-48.46Q104.22-47.97 104.22-47.44L104.22-47.44L104.22-47.44Q104.22-46.90 104.14-46.33L104.14-46.33L93.40-43.46L93.40-43.46Q92.41-45.51 91.10-45.51L91.10-45.51L91.10-45.51Q89.79-45.51 88.36-43.99L88.36-43.99L88.36-43.99Q86.92-42.48 85.53-40.06L85.53-40.06L85.53-40.06Q84.13-37.64 82.82-34.65L82.82-34.65L82.82-34.65Q81.51-31.65 80.52-28.62L80.52-28.62L80.52-28.62Q79.54-25.58 78.93-22.84L78.93-22.84L78.93-22.84Q78.31-20.09 78.31-18.37L78.31-18.37L78.31-18.37Q78.31-15.74 79.01-14.68L79.01-14.68L79.01-14.68Q79.70-13.61 80.85-13.61L80.85-13.61L80.85-13.61Q81.75-13.61 82.90-14.31L82.90-14.31L82.90-14.31Q84.05-15.01 85.03-16.11L85.03-16.11L85.03-16.11Q86.02-17.22 86.84-18.61L86.84-18.61L86.84-18.61Q87.66-20.01 87.99-21.40L87.99-21.40L97.33-17.63ZM109.55-2.46L96.92 0.16L96.92 0.16Q99.22-11.32 101.35-22.22L101.35-22.22L101.35-22.22Q102.17-26.90 103.07-31.94L103.07-31.94L103.07-31.94Q103.98-36.98 104.75-41.90L104.75-41.90L104.75-41.90Q105.53-46.82 106.23-51.46L106.23-51.46L106.23-51.46Q106.93-56.09 107.34-59.86L107.34-59.86L107.34-59.86Q109.22-59.78 110.82-59.66L110.82-59.66L110.82-59.66Q112.42-59.53 113.98-59.45L113.98-59.45L113.98-59.45Q115.54-59.37 117.14-59.33L117.14-59.33L117.14-59.33Q118.74-59.29 120.62-59.29L120.62-59.29L120.62-59.29Q119.23-53.46 117.88-47.64L117.88-47.64L117.88-47.64Q116.52-41.82 115.37-35.92L115.37-35.92L123.49-36.82L123.49-36.82Q124.64-42.64 125.54-48.09L125.54-48.09L125.54-48.09Q126.44-53.55 127.92-59.37L127.92-59.37L127.92-59.37Q129.81-59.70 132.10-59.90L132.10-59.90L132.10-59.90Q134.40-60.11 136.37-60.27L136.37-60.27L136.37-60.27Q138.33-60.43 139.69-60.56L139.69-60.56L139.69-60.56Q141.04-60.68 141.04-60.68L141.04-60.68L141.04-60.68Q139.89-56.99 138.87-52.60L138.87-52.60L138.87-52.60Q137.84-48.22 136.86-43.50L136.86-43.50L136.86-43.50Q135.87-38.79 134.97-33.95L134.97-33.95L134.97-33.95Q134.07-29.11 133.33-24.76L133.33-24.76L133.33-24.76Q131.53-14.35 129.97-3.44L129.97-3.44L117.18-1.97L117.18-1.97Q118.24-6.89 119.06-11.56L119.06-11.56L119.06-11.56Q119.88-15.50 120.75-19.76L120.75-19.76L120.75-19.76Q121.61-24.03 122.10-27.06L122.10-27.06L114.14-26.32L114.14-26.32Q113.57-23.21 112.79-19.11L112.79-19.11L112.79-19.11Q112.01-15.01 111.36-11.32L111.36-11.32L111.36-11.32Q110.45-6.89 109.55-2.46L109.55-2.46ZM146.04-3.36L132.76 0.08L132.76 0.08Q134.97-10.82 137.02-21.24L137.02-21.24L137.02-21.24Q137.76-25.67 138.66-30.46L138.66-30.46L138.66-30.46Q139.56-35.26 140.34-39.98L140.34-39.98L140.34-39.98Q141.12-44.69 141.82-49.08L141.82-49.08L141.82-49.08Q142.52-53.46 142.93-57.07L142.93-57.07L142.93-57.07Q147.60-58.55 153.01-59.25L153.01-59.25L153.01-59.25Q158.42-59.94 163.75-59.94L163.75-59.94L163.75-59.94Q166.95-59.94 169.04-59.20L169.04-59.20L169.04-59.20Q171.13-58.47 172.32-57.11L172.32-57.11L172.32-57.11Q173.51-55.76 174.00-53.96L174.00-53.96L174.00-53.96Q174.50-52.15 174.50-49.94L174.50-49.94L174.50-49.94Q174.50-46.66 173.35-43.50L173.35-43.50L173.35-43.50Q172.20-40.34 170.27-37.52L170.27-37.52L170.27-37.52Q168.35-34.69 165.84-32.35L165.84-32.35L165.84-32.35Q163.34-30.01 160.47-28.54L160.47-28.54L160.47-28.54Q161.95-25.26 163.63-21.36L163.63-21.36L163.63-21.36Q165.31-17.47 166.79-13.94L166.79-13.94L166.79-13.94Q168.43-9.84 170.15-5.74L170.15-5.74L157.44-1.31L157.44-1.31Q155.80-6.56 154.49-11.15L154.49-11.15L154.49-11.15Q153.91-13.04 153.34-15.05L153.34-15.05L153.34-15.05Q152.77-17.06 152.27-18.86L152.27-18.86L152.27-18.86Q151.78-20.66 151.45-22.10L151.45-22.10L151.45-22.10Q151.13-23.53 151.04-24.44L151.04-24.44L149.98-24.11L149.98-24.11Q149.49-21.48 148.79-17.96L148.79-17.96L148.79-17.96Q148.09-14.43 147.52-11.15L147.52-11.15L147.52-11.15Q146.78-7.30 146.04-3.36L146.04-3.36ZM154.65-48.54L152.03-35.51L152.03-35.51Q153.59-35.67 155.84-36.82L155.84-36.82L155.84-36.82Q158.10-37.97 160.15-39.57L160.15-39.57L160.15-39.57Q162.20-41.16 163.67-42.89L163.67-42.89L163.67-42.89Q165.15-44.61 165.15-45.92L165.15-45.92L165.15-45.92Q165.15-46.82 164.57-47.36L164.57-47.36L164.57-47.36Q164-47.89 162.98-48.18L162.98-48.18L162.98-48.18Q161.95-48.46 160.72-48.54L160.72-48.54L160.72-48.54Q159.49-48.63 158.18-48.63L158.18-48.63L158.18-48.63Q157.28-48.63 156.33-48.59L156.33-48.59L156.33-48.59Q155.39-48.54 154.65-48.54L154.65-48.54ZM195.98-4.02L169.49 0.08L180.24-58.22L206.15-60.43L206.15-60.43Q205.57-58.63 205.16-56.74L205.16-56.74L205.16-56.74Q204.75-55.19 204.39-53.51L204.39-53.51L204.39-53.51Q204.02-51.82 203.77-50.51L203.77-50.51L203.77-50.51Q202.95-50.43 201.43-50.39L201.43-50.39L201.43-50.39Q199.92-50.35 198.19-50.31L198.19-50.31L198.19-50.31Q196.47-50.27 194.71-50.27L194.71-50.27L194.71-50.27Q192.95-50.27 191.63-50.27L191.63-50.27L188.76-35.59L188.76-35.59Q191.31-35.75 193.52-35.83L193.52-35.83L193.52-35.83Q195.32-35.92 197.21-35.92L197.21-35.92L197.21-35.92Q199.10-35.92 200.00-36.00L200.00-36.00L200.00-36.00Q199.67-33.70 199.38-31.49L199.38-31.49L199.38-31.49Q199.10-29.27 198.69-26.98L198.69-26.98L198.69-26.98Q197.87-26.90 196.02-26.86L196.02-26.86L196.02-26.86Q194.18-26.81 192.29-26.73L192.29-26.73L192.29-26.73Q190.16-26.65 187.62-26.57L187.62-26.57L184.83-11.48L196.80-13.37L195.98-4.02ZM213.36-19.43L213.36-19.43Q210.99-19.43 208.61-19.27L208.61-19.27L208.61-19.27Q206.23-19.11 203.85-18.94L203.85-18.94L203.85-18.94Q206.39-29.03 208.81-39.03L208.81-39.03L208.81-39.03Q211.23-49.04 213.86-59.12L213.86-59.12L213.86-59.12Q215.41-59.37 217.42-59.61L217.42-59.61L217.42-59.61Q219.43-59.86 221.48-60.19L221.48-60.19L221.48-60.19Q223.53-60.52 225.46-60.76L225.46-60.76L225.46-60.76Q227.39-61.01 228.70-61.25L228.70-61.25L228.70-61.25Q224.27-50.92 220.62-40.47L220.62-40.47L220.62-40.47Q216.97-30.01 213.36-19.43L213.36-19.43ZM214.18-6.56L214.18-6.56Q214.18-5.00 213.49-3.44L213.49-3.44L213.49-3.44Q212.79-1.89 211.48-0.70L211.48-0.70L211.48-0.70Q210.17 0.49 208.20 1.19L208.20 1.19L208.20 1.19Q206.23 1.89 203.69 1.89L203.69 1.89L203.69 1.89Q201.97 1.89 200.57 1.23L200.57 1.23L200.57 1.23Q199.18 0.57 198.32-0.53L198.32-0.53L198.32-0.53Q197.46-1.64 196.96-3.03L196.96-3.03L196.96-3.03Q196.47-4.43 196.47-5.82L196.47-5.82L196.47-5.82Q196.47-7.38 196.96-8.81L196.96-8.81L196.96-8.81Q197.46-10.25 198.48-11.36L198.48-11.36L198.48-11.36Q199.51-12.46 201.02-13.20L201.02-13.20L201.02-13.20Q202.54-13.94 204.67-13.94L204.67-13.94L204.67-13.94Q209.43-13.94 211.81-11.69L211.81-11.69L211.81-11.69Q214.18-9.43 214.18-6.56L214.18-6.56Z" fill="none" stroke="#ffffff" stroke-width="2.1"></path></g></g></g><style>text {
  font-size: 64px;
  font-family: Arial Black;
  dominant-baseline: central;
  text-anchor: middle;
}</style></svg>